<svg width="96.941162" height="30.000000" viewBox="0 0 96.9412 30" fill="none" xmlns="http://www.w3.org/2000/svg" xmlns:xlink="http://www.w3.org/1999/xlink">
	<desc>
			Created with Pixso.
	</desc>
	<defs>
		<clipPath id="clip1_2679">
			<rect id="Airbnb Logo" rx="-0.500000" width="95.941177" height="29.000000" transform="translate(0.500000 0.500000)" fill="white" fill-opacity="0"/>
		</clipPath>
	</defs>
	<rect id="Airbnb Logo" rx="-0.500000" width="95.941177" height="29.000000" transform="translate(0.500000 0.500000)" fill="#FFFFFF" fill-opacity="0"/>
	<g clip-path="url(#clip1_2679)">
		<path id="Vector" d="M27.78 21.26C27.63 20.89 27.49 20.51 27.34 20.18L26.63 18.61L26.61 18.58C24.51 14.08 22.28 9.51 19.91 5.01L19.82 4.82C19.58 4.38 19.34 3.89 19.1 3.44C18.79 2.91 18.5 2.34 18.01 1.79C17.54 1.23 16.95 0.77 16.27 0.45C15.6 0.14 14.86 -0.03 14.12 -0.03C13.37 -0.03 12.64 0.14 11.96 0.45C11.29 0.77 10.69 1.23 10.22 1.79C9.77 2.34 9.44 2.91 9.14 3.44C8.9 3.93 8.66 4.41 8.41 4.85L8.32 5.04C5.99 9.54 3.72 14.11 1.63 18.61L1.57 18.67C1.36 19.16 1.12 19.66 0.88 20.21C0.73 20.53 0.57 20.89 0.42 21.28C0.01 22.32 -0.12 23.43 0.04 24.53C0.2 25.63 0.65 26.66 1.34 27.54C2.03 28.41 2.94 29.09 3.98 29.51C5.02 29.93 6.15 30.08 7.27 29.94C8.33 29.8 9.36 29.45 10.29 28.91C11.52 28.22 12.71 27.23 14.04 25.79C15.37 27.23 16.59 28.22 17.8 28.92C18.96 29.59 20.27 29.96 21.62 29.99C23.17 30 24.68 29.45 25.86 28.45C27.04 27.44 27.81 26.05 28.03 24.53C28.29 23.44 28.2 22.29 27.78 21.25L27.78 21.26ZM14.14 22.81C12.5 20.75 11.44 18.86 11.08 17.23C10.93 16.63 10.89 16.01 10.98 15.4C11.05 14.92 11.23 14.5 11.48 14.14C12.05 13.33 13.04 12.82 14.14 12.82C14.66 12.8 15.17 12.92 15.63 13.14C16.1 13.37 16.5 13.71 16.8 14.13C17.04 14.51 17.23 14.92 17.28 15.4C17.38 15.94 17.34 16.57 17.19 17.23C16.83 18.83 15.76 20.74 14.14 22.81ZM26.24 24.2C26.14 24.97 25.83 25.7 25.34 26.32C24.86 26.94 24.22 27.42 23.49 27.72C22.77 28.02 21.97 28.1 21.19 28.02C20.43 27.92 19.67 27.68 18.89 27.23C17.59 26.44 16.43 25.46 15.44 24.32C17.43 21.88 18.64 19.66 19.1 17.68C19.32 16.75 19.34 15.9 19.25 15.13C19.13 14.39 18.85 13.68 18.43 13.06C17.95 12.39 17.31 11.84 16.57 11.47C15.82 11.1 15 10.91 14.16 10.93C12.41 10.93 10.84 11.73 9.89 13.05C9.46 13.67 9.18 14.38 9.08 15.13C8.96 15.91 8.99 16.78 9.23 17.68C9.69 19.66 10.92 21.91 12.89 24.34C11.92 25.5 10.75 26.49 9.44 27.27C8.65 27.72 7.9 27.95 7.14 28.04C5.96 28.19 4.76 27.88 3.82 27.16C2.87 26.45 2.25 25.39 2.09 24.23C1.99 23.48 2.06 22.73 2.36 21.88C2.46 21.58 2.6 21.28 2.75 20.93C2.96 20.44 3.21 19.93 3.44 19.43L3.48 19.36C5.54 14.89 7.78 10.33 10.11 5.85L10.2 5.67C10.44 5.22 10.68 4.74 10.92 4.29C11.17 3.81 11.44 3.35 11.78 2.98C12.08 2.63 12.45 2.35 12.86 2.15C13.28 1.96 13.74 1.86 14.2 1.86C14.66 1.86 15.11 1.96 15.53 2.15C15.95 2.35 16.32 2.63 16.62 2.98C16.95 3.35 17.23 3.81 17.47 4.29C17.71 4.74 17.95 5.23 18.19 5.67L18.29 5.85C20.61 10.33 22.85 14.89 24.94 19.36L24.97 19.39C25.22 19.88 25.43 20.42 25.66 20.89C25.82 21.26 25.97 21.55 26.06 21.86C26.24 22.7 26.34 23.45 26.24 24.2ZM39.47 22.61C38.76 22.62 38.05 22.47 37.4 22.17C36.75 21.87 36.18 21.44 35.72 20.89C34.7 19.73 34.15 18.23 34.2 16.69C34.18 15.12 34.74 13.59 35.78 12.4C36.25 11.84 36.85 11.4 37.52 11.1C38.19 10.8 38.92 10.65 39.65 10.65C40.35 10.63 41.03 10.79 41.65 11.11C42.26 11.42 42.79 11.88 43.17 12.45L43.27 10.98L46.04 10.98L46.04 22.31L43.26 22.31L43.16 20.66C42.77 21.26 42.22 21.76 41.57 22.1C40.93 22.45 40.21 22.62 39.47 22.61ZM40.2 19.91C40.75 19.91 41.23 19.76 41.69 19.48C42.11 19.18 42.45 18.79 42.72 18.31C42.95 17.83 43.08 17.26 43.08 16.63C43.11 16.07 43 15.52 42.76 15.02C42.51 14.52 42.14 14.09 41.68 13.78C41.23 13.5 40.72 13.36 40.2 13.36C39.67 13.36 39.16 13.5 38.71 13.78C38.3 14.08 37.95 14.47 37.69 14.95C37.44 15.47 37.31 16.05 37.33 16.63C37.29 17.19 37.4 17.74 37.64 18.24C37.89 18.74 38.26 19.17 38.72 19.48C39.17 19.76 39.65 19.91 40.2 19.91ZM50.79 7.93C50.79 8.25 50.74 8.55 50.58 8.8C50.43 9.03 50.22 9.25 49.95 9.4C49.67 9.55 49.38 9.6 49.07 9.6C48.77 9.6 48.47 9.55 48.19 9.4C47.93 9.25 47.71 9.05 47.55 8.8C47.41 8.53 47.33 8.23 47.34 7.93C47.34 7.59 47.41 7.29 47.55 7.05C47.7 6.77 47.92 6.6 48.19 6.45C48.47 6.3 48.76 6.24 49.07 6.24C49.38 6.23 49.67 6.3 49.94 6.44C50.21 6.58 50.43 6.79 50.59 7.04C50.73 7.32 50.8 7.62 50.79 7.93ZM47.56 22.27L47.56 10.96L50.58 10.96L50.58 22.29L47.55 22.29L47.56 22.27ZM58.66 13.93L58.66 13.96C58.52 13.9 58.33 13.87 58.19 13.84C58 13.8 57.85 13.8 57.66 13.8C56.82 13.8 56.18 14.05 55.76 14.55C55.31 15.07 55.1 15.79 55.1 16.72L55.1 22.28L52.07 22.28L52.07 10.95L54.85 10.95L54.95 12.67C55.25 12.07 55.61 11.62 56.13 11.28C56.64 10.95 57.24 10.79 57.85 10.81C58.06 10.81 58.27 10.83 58.45 10.87C58.55 10.9 58.61 10.9 58.66 10.93L58.66 13.93ZM59.88 22.27L59.88 6.31L62.9 6.31L62.9 12.41C63.33 11.86 63.81 11.44 64.42 11.11C65.39 10.65 66.48 10.52 67.53 10.74C68.58 10.96 69.52 11.53 70.2 12.34C71.23 13.51 71.77 15.01 71.72 16.55C71.74 18.12 71.18 19.65 70.14 20.84C69.67 21.4 69.07 21.84 68.4 22.14C67.73 22.44 67 22.59 66.27 22.59C65.57 22.61 64.89 22.45 64.27 22.14C63.66 21.82 63.13 21.36 62.75 20.79L62.65 22.26L59.88 22.29L59.88 22.27ZM65.72 19.91C66.27 19.91 66.75 19.76 67.21 19.48C67.63 19.18 67.97 18.79 68.23 18.31C68.48 17.83 68.59 17.26 68.59 16.63C68.59 16 68.48 15.43 68.23 14.95C67.98 14.49 67.63 14.09 67.21 13.78C66.76 13.5 66.25 13.36 65.72 13.36C65.2 13.36 64.69 13.5 64.24 13.78C63.81 14.08 63.48 14.47 63.21 14.95C62.95 15.47 62.83 16.05 62.84 16.63C62.81 17.19 62.92 17.74 63.16 18.24C63.41 18.74 63.78 19.17 64.24 19.48C64.69 19.76 65.17 19.91 65.72 19.91ZM72.86 22.28L72.86 10.95L75.65 10.95L75.74 12.43C76.09 11.86 76.59 11.4 77.18 11.09C77.77 10.78 78.44 10.63 79.11 10.65C79.87 10.64 80.63 10.85 81.27 11.26C81.92 11.66 82.43 12.25 82.74 12.94C83.07 13.65 83.25 14.53 83.25 15.52L83.25 22.31L80.22 22.31L80.22 15.91C80.22 15.13 80.04 14.51 79.68 14.05C79.32 13.6 78.82 13.35 78.19 13.35C77.74 13.35 77.34 13.45 76.99 13.65C76.65 13.87 76.38 14.14 76.17 14.53C75.96 14.91 75.85 15.35 75.87 15.79L75.87 22.28L72.86 22.28ZM84.76 22.28L84.76 6.3L87.79 6.3L87.79 12.4C88.2 11.85 88.74 11.41 89.35 11.1C89.97 10.79 90.65 10.63 91.34 10.63C92.05 10.62 92.76 10.76 93.41 11.06C94.06 11.36 94.64 11.8 95.09 12.34C96.11 13.51 96.65 15 96.6 16.54C96.62 18.11 96.06 19.64 95.03 20.83C94.55 21.39 93.95 21.83 93.28 22.13C92.61 22.43 91.88 22.59 91.15 22.58C90.46 22.6 89.77 22.44 89.15 22.13C88.54 21.81 88.01 21.35 87.63 20.78L87.55 22.25L84.76 22.28ZM90.63 19.91C91.19 19.91 91.67 19.76 92.12 19.48C92.54 19.18 92.88 18.79 93.15 18.31C93.39 17.83 93.51 17.26 93.51 16.63C93.55 16.07 93.44 15.52 93.2 15.02C92.95 14.52 92.58 14.09 92.12 13.78C91.67 13.5 91.16 13.36 90.63 13.36C90.11 13.36 89.6 13.5 89.15 13.78C88.73 14.08 88.39 14.47 88.13 14.95C87.86 15.47 87.74 16.05 87.76 16.63C87.73 17.19 87.84 17.74 88.08 18.24C88.33 18.74 88.7 19.17 89.16 19.48C89.61 19.76 90.06 19.91 90.63 19.91Z" fill="#FF385C" fill-opacity="1.000000" fill-rule="nonzero"/>
	</g>
</svg>
