<svg width="92.049805" height="31.663635" viewBox="0 0 92.0498 31.6636" fill="none" xmlns="http://www.w3.org/2000/svg" xmlns:xlink="http://www.w3.org/1999/xlink">
	<desc>
			Created with Pixso.
	</desc>
	<defs/>
	<path id="Vector" d="M81.21 14.82L75.34 24.97L70.33 24.99L81.21 5.87L92.04 24.99L86.96 24.99L81.21 14.81L81.21 14.82ZM65.4 20.57L71.01 20.57L68.4 24.99L61.09 24.99L61.11 19.61L61.11 5.99L65.42 5.99L65.4 20.57L65.4 20.57ZM50.02 5.99C55.36 6.01 59.69 10.26 59.67 15.5C59.65 20.73 55.32 24.97 49.97 24.97C44.65 24.95 40.32 20.71 40.32 15.46C40.34 10.24 44.67 5.99 50.02 5.99ZM50 20.55C52.86 20.55 55.16 18.29 55.16 15.5C55.18 12.71 52.86 10.43 50.02 10.43C47.17 10.41 44.85 12.69 44.85 15.48C44.83 18.27 47.15 20.55 49.99 20.55L50 20.55ZM32.35 13.99C32.29 13.21 32.09 12.16 31.78 11.16C31.17 9.1 30.09 7.2 28.64 5.6C27.88 4.78 27.02 4.01 25.73 3.11C24.76 2.62 23.79 2.1 22.85 1.56C22.23 1.2 21.49 0.77 20.51 0.45C19.34 0.18 18.15 0.03 16.96 0C15.8 -0.04 14.64 0.06 13.51 0.28C12.33 0.47 11.35 0.79 10.05 1.1C7.1 2.38 4.82 4.31 2.86 6.86C-4 16.47 2.19 29.93 13.63 31.52C15.52 31.77 17.4 31.68 19.18 31.26L20.45 30.93C20.49 30.91 20.55 30.89 20.59 30.89L22.03 30.34C22.11 30.3 22.17 30.28 22.25 30.24L22.85 29.97C24 29.39 25.09 28.69 26.07 27.86C25.17 28.69 24.19 29.42 23.15 30.04L23.21 30.08C23.41 30.02 23.59 29.97 23.79 29.93C23.79 29.93 23.79 30.24 23.75 30.18C23.43 30.42 23.93 30.2 24.57 29.87C25.21 29.53 25.83 29.12 26.4 28.65C27.22 27.96 27.94 27.21 28.96 26C30 24.17 31.3 22.58 31.91 20.44C32.11 19.87 32.29 19.2 32.41 18.51C32.53 17.82 32.61 17.12 32.61 16.39C32.59 15.66 32.51 14.92 32.35 13.99ZM17.52 30.14C21.03 29.59 23.97 27.65 26.38 25C27.04 24.03 27.56 23.15 28.2 22.19C29 20.22 28.94 18.47 29.2 17.24C29.52 14.99 28.76 13.19 28.12 11.26C27.14 9.02 25.83 7.35 23.55 6.05C17.78 2.48 9.93 3.48 6.18 8.83C6.16 8.83 6.06 8.96 5.86 9.24C6.12 8.14 6.78 7.49 7.44 6.86C9.41 5.25 11.69 3.97 14.3 3.34C17.24 3.03 20.16 3.34 22.79 4.62C26.72 6.86 29.32 10.38 29.98 14.54L29.98 18.39C29.16 24.7 23.75 29.49 17.52 30.14ZM31.93 15.8C31.78 6.57 22.63 0.34 13.71 1.6C11.11 2.24 8.26 3.54 6.24 5.35C5.26 6 4.8 7.19 3.82 8.16C-0.11 13.91 0.57 21.28 5.46 25.76C6.09 26.39 6.76 26.96 7.46 27.49C3.38 25.03 1.53 21.32 0.89 16.8C0.89 15.19 1.21 13.6 1.55 11.99C3.84 4.93 11.03 -0.19 18.86 1.1C20.17 1.42 21.47 1.75 22.79 2.07C24.43 2.71 26.06 3.68 27.36 4.96C28.66 6.23 29.64 7.84 30.62 9.43C31.28 10.71 31.61 12.32 31.93 13.6C31.99 14.33 31.99 15.07 31.93 15.8L31.93 15.8Z" fill="#1D1E25" fill-opacity="1.000000" fill-rule="evenodd"/>
	<path id="Vector" d="M23.79 15.94C23.79 19.91 20.47 23.13 16.36 23.13C12.25 23.13 8.93 19.91 8.93 15.94C8.93 11.97 12.25 8.75 16.36 8.75C20.47 8.75 23.79 11.97 23.79 15.94L23.79 15.94Z" fill="#FFFFFF" fill-opacity="1.000000" fill-rule="evenodd"/>
	<path id="Vector" d="M23.83 14.72C23.73 14.17 23.57 13.74 23.41 13.13C22.77 11.79 21.83 10.75 20.59 9.87C15.94 6.78 9.55 9.75 8.87 15.02C8.61 17.1 9.35 19.1 10.67 20.64C10.27 20.22 9.83 19.79 9.53 19.3L9.49 19.34C9.53 19.46 9.69 19.54 9.73 19.65C9.73 19.65 9.57 19.65 9.61 19.63C9.49 19.5 9.59 19.71 9.77 20.01C9.93 20.3 10.13 20.58 10.37 20.83C10.71 21.21 11.07 21.54 11.67 21.99C12.55 22.44 13.34 23.03 14.36 23.31C14.64 23.39 14.96 23.46 15.28 23.52C15.62 23.58 15.94 23.6 16.3 23.6C16.64 23.6 17 23.56 17.44 23.48C17.9 23.43 18.35 23.34 18.78 23.21C19.76 22.91 20.67 22.4 21.43 21.72C21.81 21.36 22.35 20.91 22.77 20.32C23.11 19.65 23.15 19.32 23.31 19.02C23.47 18.73 23.67 18.4 23.81 17.94C23.93 17.41 24 16.86 24.01 16.31C23.99 15.76 23.95 15.23 23.83 14.72L23.83 14.72ZM19.06 11.07C19.75 11.46 19.85 11.52 19.48 11.26C20.01 11.38 20.33 11.67 20.65 11.97C21.43 12.85 22.07 13.9 22.39 15.09C22.57 16.45 22.43 17.8 21.85 19C20.81 20.83 19.14 22.05 17.16 22.38C16.94 22.38 16.7 22.38 16.48 22.4C17.04 22.3 17.4 21.95 18.42 21.58C19.52 21.18 20.77 19.36 21.37 18.3C23.13 15.41 21.05 12.74 19.06 11.07ZM15.3 22.42C12.25 22.11 9.91 19.61 9.59 16.72C9.87 18.34 10.83 19.57 12.13 20.67C12.59 20.97 13.27 21.38 13.74 21.68C14.52 21.97 14.98 22.29 15.74 22.42L15.3 22.42L15.3 22.42ZM23.49 17.18C23.35 17.79 23.21 18.37 23.07 18.98C22.77 19.73 22.33 20.5 21.73 21.11C21.13 21.72 20.37 22.19 19.61 22.64C19 22.95 18.24 23.11 17.62 23.27C17.26 23.31 16.84 23.15 16.48 23.13C20.93 23.01 23.97 18.87 23.31 14.76C22.99 13.56 22.35 12.52 21.57 11.48C21.25 11.03 20.63 10.75 20.17 10.3C17.38 8.55 13.7 8.9 11.59 11.2C11.3 11.51 11.02 11.83 10.77 12.17C11.89 10.52 13.7 9.36 15.86 9.02C16.62 9 17.4 9.14 18.16 9.28C21.53 10.3 24.03 13.56 23.49 17.18L23.49 17.18Z" fill="#D7DF23" fill-opacity="1.000000" fill-rule="evenodd"/>
</svg>
