<svg width="176.653809" height="148.500000" viewBox="0 0 176.654 148.5" fill="none" xmlns="http://www.w3.org/2000/svg" xmlns:xlink="http://www.w3.org/1999/xlink">
	<desc>
			Created with Pixso.
	</desc>
	<defs/>
	<line id="Line 7" x1="28.701660" y1="12.708984" x2="171.701660" y2="12.708984" stroke="#E6E9ED" stroke-opacity="1.000000" stroke-width="1.000000" stroke-dasharray="2.000000,2.000000"/>
	<line id="Line 9" x1="28.701660" y1="64.708984" x2="171.701660" y2="64.708984" stroke="#E6E9ED" stroke-opacity="1.000000" stroke-width="1.000000" stroke-dasharray="2.000000,2.000000"/>
	<line id="Line 11" x1="28.701660" y1="119.708984" x2="171.701660" y2="119.708984" stroke="#E6E9ED" stroke-opacity="1.000000" stroke-width="1.000000" stroke-dasharray="2.000000,2.000000"/>
	<path id="Jan" d="M37.49 140.66L37.49 134.42L38.55 134.42L38.55 140.66C38.55 142.33 37.58 143.26 36.06 143.26C34.63 143.26 33.59 142.44 33.59 141.1L34.63 141.1C34.63 141.84 35.23 142.33 36.06 142.33C36.97 142.33 37.49 141.74 37.49 140.66ZM44.4 142.26C44.19 142.68 43.59 143.3 42.45 143.3C41.21 143.3 40.22 142.56 40.22 141.29C40.22 139.79 41.55 139.52 42.76 139.36C43.95 139.21 44.45 139.25 44.45 138.76L44.45 138.73C44.45 137.89 43.99 137.4 43.07 137.4C42.11 137.4 41.58 137.91 41.36 138.39L40.41 138.05C40.92 136.85 42.04 136.51 43.03 136.51C43.87 136.51 45.45 136.75 45.45 138.83L45.45 143.14L44.45 143.14L44.45 142.26L44.4 142.26ZM49.97 137.42C49.01 137.42 48.3 138.06 48.3 139.21L48.3 143.14L47.29 143.14L47.29 136.6L48.27 136.6L48.27 137.62L48.35 137.62C48.66 136.96 49.27 136.51 50.26 136.51C51.58 136.51 52.48 137.31 52.48 138.98L52.48 143.14L51.47 143.14L51.47 139.05C51.47 138.03 50.9 137.42 49.97 137.42ZM41.23 141.34C41.23 142.04 41.81 142.39 42.61 142.39C43.8 142.39 44.45 141.59 44.45 140.77L44.45 139.85C44.28 140.06 43.13 140.18 42.71 140.23C41.92 140.33 41.23 140.57 41.23 141.34Z" fill="#808D9E" fill-opacity="1.000000" fill-rule="evenodd"/>
	<g opacity="0.700000">
		<path id="Jan" d="M4.95 7.55Q4.37 8.52 4.37 10.25Q4.37 12.01 4.95 12.99Q5.12 13.27 5.35 13.47Q5.94 13.98 6.97 13.98Q7.99 13.98 8.59 13.47Q8.82 13.27 8.98 12.99Q9.57 12.01 9.57 10.25Q9.57 8.52 8.98 7.55Q8.82 7.28 8.6 7.09Q8.01 6.58 6.97 6.58Q5.93 6.58 5.34 7.09Q5.11 7.28 4.95 7.55ZM15.65 14L13.11 11.25L15.65 8.48L14.07 8.48L12.07 10.89L12.07 6.6L10.93 6.6L10.93 14L12.07 14L12.07 11.62L14.11 14L15.65 14ZM0.72 6.7L0.72 7.75L1.65 7.75L1.65 14L2.8 14L2.8 6.7L0.72 6.7ZM8.35 8.89Q8.45 9.44 8.45 10.25Q8.45 11.09 8.35 11.67Q8.25 12.23 7.93 12.59Q7.89 12.62 7.85 12.66Q7.53 12.94 6.97 12.94Q6.41 12.94 6.09 12.66Q6.05 12.62 6.01 12.59Q5.69 12.23 5.59 11.67Q5.49 11.09 5.49 10.25Q5.49 9.44 5.6 8.89Q5.7 8.33 6.02 7.97Q6.06 7.93 6.11 7.89Q6.42 7.62 6.97 7.62Q7.52 7.62 7.84 7.89Q7.88 7.93 7.92 7.97Q8.24 8.33 8.35 8.89Z" fill="#1D1E25" fill-opacity="1.000000" fill-rule="evenodd"/>
	</g>
	<g opacity="0.700000">
		<path id="Jan" d="M13.89 68L11.35 65.25L13.89 62.48L12.31 62.48L10.31 64.89L10.31 60.6L9.17 60.6L9.17 68L10.31 68L10.31 65.62L12.35 68L13.89 68ZM3.98 61.68L7.33 61.68L7.33 60.69L2.93 60.69L2.93 64.89L4.01 64.89Q4.12 64.6 4.31 64.39Q4.4 64.3 4.49 64.23Q4.52 64.21 4.56 64.19Q4.88 63.99 5.32 63.99Q5.95 63.99 6.3 64.3Q6.34 64.33 6.38 64.37Q6.38 64.37 6.38 64.38Q6.74 64.76 6.74 65.48Q6.74 66.16 6.4 66.59Q6.39 66.6 6.38 66.62Q6.32 66.7 6.23 66.76Q5.89 67.05 5.32 67.05Q4.76 67.05 4.38 66.78Q4.38 66.78 4.37 66.77Q4.21 66.65 4.09 66.5Q3.94 66.29 3.88 66.02L2.77 66.02Q2.85 66.56 3.12 66.97Q3.3 67.24 3.56 67.46Q3.57 67.47 3.58 67.47Q4.24 68 5.31 68Q6.13 68 6.69 67.67Q7.01 67.48 7.25 67.21Q7.42 67.01 7.55 66.76Q7.83 66.19 7.83 65.45Q7.83 65.03 7.73 64.65Q7.68 64.47 7.6 64.29Q7.54 64.12 7.44 63.97Q7.22 63.62 6.85 63.38Q6.33 63.01 5.49 63.01Q5.19 63.01 4.91 63.09Q4.75 63.14 4.61 63.21Q4.19 63.4 3.98 63.68L3.98 61.68Z" fill="#1D1E25" fill-opacity="1.000000" fill-rule="evenodd"/>
	</g>
	<g opacity="0.700000">
		<path id="Jan" d="M5.97 115.55Q5.39 116.52 5.39 118.26Q5.39 120.01 5.97 120.99Q6.14 121.27 6.37 121.47Q6.96 121.98 7.99 121.98Q9.01 121.98 9.61 121.47Q9.84 121.27 10 120.99Q10.59 120.01 10.59 118.26Q10.59 116.52 10 115.55Q9.84 115.28 9.62 115.09Q9.03 114.58 7.99 114.58Q6.95 114.58 6.36 115.09Q6.13 115.28 5.97 115.55ZM9.37 116.89Q9.47 117.44 9.47 118.26Q9.47 119.1 9.37 119.67Q9.27 120.24 8.95 120.59Q8.91 120.62 8.87 120.66Q8.55 120.94 7.99 120.94Q7.43 120.94 7.11 120.66Q7.07 120.62 7.03 120.59Q6.71 120.24 6.61 119.67Q6.51 119.1 6.51 118.26Q6.51 117.44 6.62 116.89Q6.72 116.33 7.04 115.97Q7.08 115.93 7.13 115.89Q7.44 115.62 7.99 115.62Q8.54 115.62 8.86 115.89Q8.9 115.93 8.94 115.97Q9.26 116.33 9.37 116.89Z" fill="#1D1E25" fill-opacity="1.000000" fill-rule="evenodd"/>
	</g>
	<path id="Mar" d="M146.97 143.14L146.97 134.42L148.23 134.42L151.2 141.66L151.3 141.66L154.27 134.42L155.53 134.42L155.53 143.14L154.54 143.14L154.54 136.51L154.46 136.51L151.73 143.14L150.77 143.14L148.05 136.51L147.96 136.51L147.96 143.14L146.97 143.14ZM165.28 143.14L164.27 143.14L164.27 136.6L165.25 136.6L165.25 137.59L165.31 137.59C165.55 136.94 166.23 136.5 167.02 136.5C167.17 136.5 167.43 136.5 167.55 136.51L167.55 137.54C167.48 137.52 167.2 137.47 166.93 137.47C165.98 137.47 165.28 138.12 165.28 139L165.28 143.14ZM161.38 142.26C161.17 142.68 160.57 143.3 159.43 143.3C158.19 143.3 157.2 142.56 157.2 141.29C157.2 139.79 158.53 139.52 159.74 139.36C160.93 139.21 161.43 139.25 161.43 138.76L161.43 138.73C161.43 137.89 160.97 137.4 160.05 137.4C159.09 137.4 158.56 137.91 158.34 138.39L157.39 138.05C157.9 136.85 159.02 136.51 160.01 136.51C160.85 136.51 162.43 136.75 162.43 138.83L162.43 143.14L161.43 143.14L161.43 142.26L161.38 142.26ZM158.21 141.34C158.21 142.04 158.79 142.39 159.59 142.39C160.78 142.39 161.43 141.59 161.43 140.77L161.43 139.85C161.26 140.06 160.11 140.18 159.69 140.23C158.9 140.33 158.21 140.57 158.21 141.34Z" fill="#808D9E" fill-opacity="1.000000" fill-rule="evenodd"/>
	<path id="Feb" d="M91.86 143.14L90.81 143.14L90.81 134.42L96.04 134.42L96.04 135.35L91.86 135.35L91.86 138.3L95.64 138.3L95.64 139.24L91.86 139.24L91.86 143.14ZM105.33 143.14L104.36 143.14L104.36 134.42L105.36 134.42L105.36 137.64L105.45 137.64C105.67 137.3 106.06 136.51 107.34 136.51C108.99 136.51 110.13 137.83 110.13 139.89C110.13 141.97 108.99 143.28 107.36 143.28C106.09 143.28 105.67 142.5 105.45 142.14L105.33 142.14L105.33 143.14ZM102.58 141.63C102.28 142.62 101.31 143.28 99.98 143.28C98.08 143.28 96.92 141.93 96.92 139.92C96.92 137.91 98.1 136.51 99.87 136.51C101.24 136.51 102.69 137.35 102.69 139.79L102.69 140.21L97.93 140.21C97.98 141.62 98.79 142.38 99.98 142.38C100.76 142.38 101.36 142.04 101.61 141.35L102.58 141.63ZM99.87 137.42C98.72 137.42 98 138.33 97.93 139.34L101.66 139.34C101.66 138.23 100.96 137.42 99.87 137.42ZM107.22 137.42C105.99 137.42 105.34 138.41 105.34 139.87C105.34 141.35 106.01 142.38 107.22 142.38C108.48 142.38 109.13 141.27 109.13 139.87C109.13 138.49 108.5 137.42 107.22 137.42Z" fill="#808D9E" fill-opacity="1.000000" fill-rule="evenodd"/>
	<rect id="Rectangle 2989" x="38.250000" y="19.000000" rx="6.000000" width="12.000000" height="49.535065" fill="#EB6E46" fill-opacity="1.000000"/>
	<rect id="Rectangle 2989" x="36.750000" y="17.500000" rx="7.500000" width="15.000000" height="52.535065" stroke="#FFFFFF" stroke-opacity="1.000000" stroke-width="3.000000"/>
	<rect id="Rectangle 2988" x="38.250000" y="33.796387" rx="6.000000" width="12.000000" height="49.535065" fill="#20BFF7" fill-opacity="1.000000"/>
	<rect id="Rectangle 2988" x="36.750000" y="32.296387" rx="7.500000" width="15.000000" height="52.535065" stroke="#FFFFFF" stroke-opacity="1.000000" stroke-width="3.000000"/>
	<rect id="Rectangle 2981" x="38.250000" y="71.108398" rx="6.000000" width="12.000000" height="49.535065" fill="#2280FF" fill-opacity="1.000000"/>
	<rect id="Rectangle 2981" x="36.750000" y="69.608398" rx="7.500000" width="15.000000" height="52.535065" stroke="#FFFFFF" stroke-opacity="1.000000" stroke-width="3.000000"/>
	<rect id="Rectangle 2989" x="94.250000" y="53.095703" rx="6.000000" width="12.000000" height="32.291847" fill="#EB6E46" fill-opacity="1.000000"/>
	<rect id="Rectangle 2989" x="92.750000" y="51.595703" rx="7.500000" width="15.000000" height="35.291847" stroke="#FFFFFF" stroke-opacity="1.000000" stroke-width="3.000000"/>
	<rect id="Rectangle 2988" x="94.250000" y="77.541748" rx="6.000000" width="12.000000" height="32.291847" fill="#20BFF7" fill-opacity="1.000000"/>
	<rect id="Rectangle 2988" x="92.750000" y="76.041748" rx="7.500000" width="15.000000" height="35.291847" stroke="#FFFFFF" stroke-opacity="1.000000" stroke-width="3.000000"/>
	<rect id="Rectangle 2981" x="94.250000" y="103.274170" rx="6.000000" width="12.000000" height="17.369440" fill="#2280FF" fill-opacity="1.000000"/>
	<rect id="Rectangle 2981" x="92.750000" y="101.774170" rx="7.500000" width="15.000000" height="20.369440" stroke="#FFFFFF" stroke-opacity="1.000000" stroke-width="3.000000"/>
	<rect id="Rectangle 2989" x="150.250000" y="57.598877" rx="6.000000" width="12.000000" height="30.724342" fill="#EB6E46" fill-opacity="1.000000"/>
	<rect id="Rectangle 2989" x="148.750000" y="56.098877" rx="7.500000" width="15.000000" height="33.724342" stroke="#FFFFFF" stroke-opacity="1.000000" stroke-width="3.000000"/>
	<rect id="Rectangle 2988" x="150.250000" y="66.776855" rx="6.000000" width="12.000000" height="30.724342" fill="#20BFF7" fill-opacity="1.000000"/>
	<rect id="Rectangle 2988" x="148.750000" y="65.276855" rx="7.500000" width="15.000000" height="33.724342" stroke="#FFFFFF" stroke-opacity="1.000000" stroke-width="3.000000"/>
	<rect id="Rectangle 2981" x="150.250000" y="89.920166" rx="6.000000" width="12.000000" height="30.724342" fill="#2280FF" fill-opacity="1.000000"/>
	<rect id="Rectangle 2981" x="148.750000" y="88.420166" rx="7.500000" width="15.000000" height="33.724342" stroke="#FFFFFF" stroke-opacity="1.000000" stroke-width="3.000000"/>
</svg>
